<svg width="83" height="83" viewBox="0 0 83 83" fill="none" xmlns="http://www.w3.org/2000/svg">
<g clip-path="url(#clip0_39_3)">
<path d="M41.5 77.8125C31.8693 77.8125 22.6331 73.9867 15.8232 67.1768C9.01327 60.3669 5.1875 51.1307 5.1875 41.5C5.1875 31.8693 9.01327 22.6331 15.8232 15.8232C22.6331 9.01327 31.8693 5.1875 41.5 5.1875C51.1307 5.1875 60.3669 9.01327 67.1768 15.8232C73.9867 22.6331 77.8125 31.8693 77.8125 41.5C77.8125 51.1307 73.9867 60.3669 67.1768 67.1768C60.3669 73.9867 51.1307 77.8125 41.5 77.8125ZM41.5 83C52.5065 83 63.0622 78.6277 70.8449 70.8449C78.6277 63.0622 83 52.5065 83 41.5C83 30.4935 78.6277 19.9378 70.8449 12.1551C63.0622 4.37231 52.5065 0 41.5 0C30.4935 0 19.9378 4.37231 12.1551 12.1551C4.37231 19.9378 0 30.4935 0 41.5C0 52.5065 4.37231 63.0622 12.1551 70.8449C19.9378 78.6277 30.4935 83 41.5 83Z" fill="#1083E5"/>
<path d="M41.5 20.75C42.1879 20.75 42.8476 21.0233 43.3341 21.5097C43.8205 21.9961 44.0938 22.6558 44.0938 23.3438V38.9062H59.6562C60.3442 38.9062 61.0039 39.1795 61.4903 39.6659C61.9767 40.1524 62.25 40.8121 62.25 41.5C62.25 42.1879 61.9767 42.8476 61.4903 43.3341C61.0039 43.8205 60.3442 44.0938 59.6562 44.0938H44.0938V59.6562C44.0938 60.3442 43.8205 61.0039 43.3341 61.4903C42.8476 61.9767 42.1879 62.25 41.5 62.25C40.8121 62.25 40.1524 61.9767 39.6659 61.4903C39.1795 61.0039 38.9062 60.3442 38.9062 59.6562V44.0938H23.3438C22.6558 44.0938 21.9961 43.8205 21.5097 43.3341C21.0233 42.8476 20.75 42.1879 20.75 41.5C20.75 40.8121 21.0233 40.1524 21.5097 39.6659C21.9961 39.1795 22.6558 38.9062 23.3438 38.9062H38.9062V23.3438C38.9062 22.6558 39.1795 21.9961 39.6659 21.5097C40.1524 21.0233 40.8121 20.75 41.5 20.75Z" fill="#1083E5"/>
</g>
<defs>
<clipPath id="clip0_39_3">
<rect width="83" height="83" fill="white"/>
</clipPath>
</defs>
</svg>
